<?xml version="1.0" encoding="iso-8859-1"?>
<!-- Generator: Adobe Illustrator 19.0.0, SVG Export Plug-In . SVG Version: 6.00 Build 0)  -->
<svg version="1.1" id="Capa_1" xmlns="http://www.w3.org/2000/svg" xmlns:xlink="http://www.w3.org/1999/xlink" x="0px" y="0px"
	 viewBox="0 0 468.293 468.293" style="enable-background:new 0 0 468.293 468.293;" xml:space="preserve">
<polygon style="fill:#E1E6E9;" points="368.619,0 96.977,0 96.977,468.293 448.724,468.293 448.724,80.105 "/>
<path style="fill:#1C75A1;" d="M168.142,160.858H25.812c-3.448,0-6.244-2.795-6.244-6.244V68.075c0-3.448,2.795-6.244,6.244-6.244
	h142.329c3.448,0,6.244,2.795,6.244,6.244v86.539C174.385,158.063,171.59,160.858,168.142,160.858z"/>
<g>
	<polygon style="fill:#EBF0F3;" points="368.62,80.104 448.724,80.105 368.618,0 	"/>
	<path style="fill:#EBF0F3;" d="M75.173,112.512h9.857v19.965c-5.513,6.071-13.392,9.106-23.636,9.106
		c-8.633,0-15.86-2.842-21.679-8.521c-5.819-5.68-8.729-12.865-8.729-21.553s2.964-15.924,8.898-21.719
		c5.928-5.788,13.1-8.684,21.509-8.684s15.397,2.451,20.965,7.349l-5.262,7.518c-2.284-1.948-4.582-3.3-6.893-4.052
		c-2.311-0.751-4.996-1.128-8.062-1.128c-5.901,0-10.856,1.91-14.867,5.724c-4.011,3.814-6.016,8.827-6.016,15.037
		c0,6.21,1.951,11.193,5.853,14.952c3.895,3.759,8.613,5.639,14.153,5.639s10.176-1.2,13.909-3.593V112.512z"/>
	<path style="fill:#EBF0F3;" d="M97.98,82.523h9.857v58.391H97.98V82.523z"/>
	<path style="fill:#EBF0F3;" d="M133.9,91.714v16.036h25.893v9.106H133.9v24.058h-9.857V82.523h38.925l-0.082,9.191H133.9z"/>
</g>
<path style="fill:#44C4A1;" d="M384.567,394.019H161.134V267.286c0-6.897,5.591-12.488,12.488-12.488h198.457
	c6.897,0,12.488,5.591,12.488,12.488V394.019z"/>
<circle style="fill:#FCD462;" cx="208.827" cy="294.25" r="22.622"/>
<path style="fill:#DC8744;" d="M287.322,394.019h69.626l-37.895-99.183c-2.365-6.189-11.123-6.189-13.488,0l-28.068,73.466
	l-19.095-49.981c-1.806-4.725-8.491-4.725-10.295,0l-20.27,53.054l-11.611-30.388c-1.264-3.31-5.946-3.31-7.212,0l-20.261,53.032
	h47.735h-0.001H287.322L287.322,394.019z"/>
<g>
</g>
<g>
</g>
<g>
</g>
<g>
</g>
<g>
</g>
<g>
</g>
<g>
</g>
<g>
</g>
<g>
</g>
<g>
</g>
<g>
</g>
<g>
</g>
<g>
</g>
<g>
</g>
<g>
</g>
</svg>
